<svg width="776" height="149" viewBox="0 0 776 149" fill="none" xmlns="http://www.w3.org/2000/svg">
<g clip-path="url(#clip0_0_1)">
<g filter="url(#filter0_d_0_1)">
<path d="M181.906 56.035H179.926V75.5846H182.462C185.496 75.5846 187.812 74.7255 189.411 73.0069C191.009 71.2886 191.808 68.8247 191.808 65.6153C191.808 62.2436 191.032 59.8121 189.48 58.3206C187.928 56.7968 185.403 56.035 181.906 56.035ZM168.251 113.711V43.1967H181.211C185.357 43.1967 188.565 43.5856 190.835 44.364C193.128 45.1094 195.155 46.3739 196.915 48.1568C198.792 50.0373 200.239 52.3715 201.259 55.1598C202.301 57.9155 202.822 60.8332 202.822 63.9131C202.822 68.3545 202.011 72.245 200.39 75.5846C198.792 78.9237 196.475 81.5336 193.441 83.4137L208.798 113.711H195.074L181.628 86.04H179.926V113.711H168.251ZM213.627 113.711V43.1967H244.654V57.7371H225.302V70.4782H241.875V84.9214H225.302V98.8783H244.933V113.711H213.627ZM254.14 113.711V43.1967H285.445V57.5426H266.092V71.5968H283.394V85.8456H266.092V113.711H254.14ZM302.573 78.4536C302.573 84.581 303.847 89.7196 306.397 93.8692C308.966 97.9867 312.128 100.045 315.88 100.045C319.656 100.045 322.819 97.9867 325.365 93.8692C327.915 89.7521 329.186 84.6136 329.186 78.4536C329.186 72.2615 327.915 67.1065 325.365 62.9894C322.819 58.8393 319.656 56.7647 315.88 56.7647C312.128 56.7647 308.966 58.8393 306.397 62.9894C303.847 67.1065 302.573 72.2615 302.573 78.4536ZM290.204 78.4536C290.204 73.2339 290.84 68.3545 292.115 63.8159C293.412 59.2447 295.311 55.1598 297.813 51.5611C300.175 48.1246 302.92 45.4983 306.047 43.6829C309.176 41.8349 312.453 40.9111 315.88 40.9111C319.309 40.9111 322.586 41.8349 325.713 43.6829C328.864 45.5309 331.655 48.1893 334.086 51.6583C336.543 55.1272 338.395 59.1475 339.647 63.7187C340.919 68.2573 341.558 73.1692 341.558 78.4536C341.558 82.8628 341.118 87.0125 340.235 90.9029C339.356 94.7934 338.047 98.3435 336.311 101.553C333.854 106.124 330.831 109.674 327.242 112.203C323.676 114.732 319.888 115.996 315.88 115.996C312.476 115.996 309.209 115.072 306.083 113.224C302.979 111.376 300.222 108.718 297.813 105.249C295.311 101.65 293.412 97.5977 292.115 93.0913C290.84 88.5526 290.204 83.6733 290.204 78.4536ZM363.619 56.035H361.638V75.5846H364.177C367.21 75.5846 369.527 74.7255 371.124 73.0069C372.724 71.2886 373.522 68.8247 373.522 65.6153C373.522 62.2436 372.746 59.8121 371.194 58.3206C369.642 56.7968 367.118 56.035 363.619 56.035ZM349.965 113.711V43.1967H362.924C367.07 43.1967 370.278 43.5856 372.55 44.364C374.842 45.1094 376.87 46.3739 378.629 48.1568C380.506 50.0373 381.952 52.3715 382.971 55.1598C384.014 57.9155 384.535 60.8332 384.535 63.9131C384.535 68.3545 383.725 72.245 382.103 75.5846C380.506 78.9237 378.189 81.5336 375.155 83.4137L390.513 113.711H376.789L363.342 86.04H361.638V113.711H349.965ZM391.208 113.711L401.665 40.9111H402.534L421.539 86.818L439.465 40.9111H440.37L450.898 113.711H439.465L435.193 81.5171L421.676 116.288H420.878L406.355 81.0309L401.943 113.711H391.208ZM469.172 91.2919H482.411L475.879 69.214L469.172 91.2919ZM450.341 113.711L476.019 41.0083H476.783L501.901 113.711H489.325L486.129 103.45H465.698L462.432 113.711H450.341ZM537.202 91.2919H550.442L543.909 69.214L537.202 91.2919ZM518.371 113.711L544.049 41.0083H544.811L569.931 113.711H557.356L554.159 103.45H533.728L530.462 113.711H518.371ZM616.489 74.5631V108.848C613.107 111.214 609.807 112.997 606.588 114.197C603.392 115.396 600.288 115.996 597.276 115.996C589.609 115.996 583.238 112.462 578.168 105.395C573.117 98.2949 570.593 89.3467 570.593 78.5508C570.593 67.6578 573.153 58.6448 578.271 51.5124C583.412 44.38 589.911 40.8138 597.764 40.8138C600.728 40.8138 603.554 41.3812 606.241 42.516C608.928 43.6507 611.51 45.3689 613.987 47.6706L612.704 65.3236C610.362 62.0165 608.037 59.6012 605.72 58.0774C603.403 56.5212 600.971 55.7432 598.422 55.7432C593.906 55.7432 590.166 57.8669 587.2 62.1138C584.236 66.3285 582.754 71.6129 582.754 77.9674C582.754 84.6457 584.177 90.1085 587.026 94.3558C589.897 98.5702 593.592 100.678 598.111 100.678C599.153 100.678 600.207 100.548 601.271 100.289C602.338 100.029 603.448 99.6563 604.608 99.1701V88.9091H595.052V74.5631H616.489ZM635.704 78.4536C635.704 84.581 636.978 89.7196 639.525 93.8692C642.097 97.9867 645.259 100.045 649.011 100.045C652.787 100.045 655.947 97.9867 658.496 93.8692C661.043 89.7521 662.317 84.6136 662.317 78.4536C662.317 72.2615 661.043 67.1065 658.496 62.9894C655.947 58.8393 652.787 56.7647 649.011 56.7647C645.259 56.7647 642.097 58.8393 639.525 62.9894C636.978 67.1065 635.704 72.2615 635.704 78.4536ZM623.335 78.4536C623.335 73.2339 623.971 68.3545 625.246 63.8159C626.543 59.2447 628.442 55.1598 630.944 51.5611C633.306 48.1246 636.051 45.4983 639.177 43.6829C642.304 41.8349 645.582 40.9111 649.011 40.9111C652.44 40.9111 655.717 41.8349 658.844 43.6829C661.992 45.5309 664.785 48.1893 667.217 51.6583C669.671 55.1272 671.526 59.1475 672.775 63.7187C674.05 68.2573 674.686 73.1692 674.686 78.4536C674.686 82.8628 674.246 87.0125 673.366 90.9029C672.487 94.7934 671.178 98.3435 669.441 101.553C666.985 106.124 663.962 109.674 660.373 112.203C656.804 114.732 653.017 115.996 649.011 115.996C645.607 115.996 642.34 115.072 639.214 113.224C636.11 111.376 633.353 108.718 630.944 105.249C628.442 101.65 626.543 97.5977 625.246 93.0913C623.971 88.5526 623.335 83.6733 623.335 78.4536ZM696.75 56.035H694.769V75.5846H697.305C700.339 75.5846 702.655 74.7255 704.255 73.0069C705.852 71.2886 706.653 68.8247 706.653 65.6153C706.653 62.2436 705.877 59.8121 704.325 58.3206C702.773 56.7968 700.246 56.035 696.75 56.035ZM683.096 113.711V43.1967H696.055C700.201 43.1967 703.409 43.5856 705.678 44.364C707.973 45.1094 709.998 46.3739 711.76 48.1568C713.634 50.0373 715.083 52.3715 716.102 55.1598C717.145 57.9155 717.666 60.8332 717.666 63.9131C717.666 68.3545 716.856 72.245 715.234 75.5846C713.634 78.9237 711.32 81.5336 708.283 83.4137L723.641 113.711H709.917L696.473 86.04H694.769V113.711H683.096ZM739.416 91.2919H752.653L746.123 69.214L739.416 91.2919ZM720.585 113.711L746.26 41.0083H747.025L772.145 113.711H759.567L756.37 103.45H735.942L732.676 113.711H720.585Z" fill="#373435"/>
</g>
<path fill-rule="evenodd" clip-rule="evenodd" d="M47.2138 144.501C47.8601 148.398 53.0635 147.425 55.9532 147.425L99.8771 147.42C114.397 147.42 112.994 149.94 112.994 135.146C112.994 131.255 113.889 123.65 111.646 122.002C110.493 121.155 75.3765 118.118 70.8 117.67C66.7999 117.278 64.5254 117.227 60.6787 117.667C45.7893 119.37 47.1528 117.597 47.1528 129.465C47.1528 132.3 46.8802 142.488 47.2138 144.501Z" fill="#B7262D"/>
<path fill-rule="evenodd" clip-rule="evenodd" d="M64.8983 39.002C61.9968 39.9148 58.4454 41.7459 55.5232 42.9712C53.1151 43.9813 47.6473 45.3368 47.201 48.3717C46.8147 50.9976 47.1556 61.8428 47.1528 65.3145C47.15 68.3785 46.8847 70.4264 48.4614 71.8008C50.0122 73.1527 51.7914 72.4634 53.5527 71.989C65.8586 68.6745 63.0409 68.3887 74.3173 71.0024L105.694 78.2462C110.203 79.2786 113.028 81.3709 112.997 73.6707C112.922 55.3515 114.293 56.0013 108.857 54.0988C102.466 51.8618 66.2071 38.5904 64.8983 39.002Z" fill="#B7262D"/>
<path fill-rule="evenodd" clip-rule="evenodd" d="M64.2982 77.8392C58.0484 79.5362 51.8783 81.2654 45.6011 82.9012C42.3971 83.7364 28.9683 86.6384 27.5014 88.6381C26.1609 90.4654 26.785 99.7779 26.785 103.07C26.7851 109.041 26.191 113.04 31.3773 112.493L62.287 108.998C67.3546 108.478 77.6115 109.816 83.16 110.378C90.7447 111.147 89.4843 112.333 89.5283 89.0353C89.5423 81.7465 88.4472 82.8444 83.5937 81.7273C80.1787 80.9411 66.6525 77.2 64.2982 77.8392Z" fill="#B7262D"/>
<path fill-rule="evenodd" clip-rule="evenodd" d="M89.5271 33.2387L89.5277 14.528C89.5277 10.2015 86.8478 9.98131 82.7801 8.0349L65.4798 0C65.0167 0.00243269 28.8658 19.7196 28.034 20.542C26.4906 22.0685 26.861 24.0789 26.8621 27.2245C26.8631 30.2997 26.4322 40.9464 27.3475 42.5371C29.2073 45.7693 34.1787 42.8493 36.5706 41.8812C42.6469 39.4215 48.5518 37.0462 54.4956 34.5704C57.4845 33.3257 60.4134 32.1719 63.3748 30.9578C65.9706 29.8938 65.4165 30.1277 68.033 31.037C69.6767 31.6084 71.1945 32.1374 72.8126 32.7184C75.9012 33.8273 79.0427 34.9124 82.1624 35.9881C85.3289 37.0798 89.5271 39.7657 89.5271 33.2387Z" fill="#B7262D"/>
<path fill-rule="evenodd" clip-rule="evenodd" d="M96.9885 85.2139C94.5967 86.4478 95.2522 91.3378 95.2522 95.051C95.2522 99.1426 95.1802 103.355 95.2424 107.431C95.3163 112.284 97.6965 111.837 100.761 112.226C107.481 113.082 139.714 117.847 141.372 117.092C143.413 116.162 142.781 110.493 142.781 107.079C142.781 92.8987 143.712 94.9416 135.207 93.043C129.266 91.7166 97.9746 84.7053 96.9885 85.2139Z" fill="#B7262D"/>
<path fill-rule="evenodd" clip-rule="evenodd" d="M97.0955 15.4527C94.5311 16.5956 95.2522 20.3772 95.2522 26.5563C95.2522 42.6634 94.0812 40.1508 102.558 43.2088L125.738 51.4972C144.12 58.0924 142.781 59.9509 142.781 45.267C142.781 43.3712 142.906 40.4225 142.745 38.6527C142.531 36.2949 141.885 36.0227 140.412 35.3086L111.505 21.6358C109.368 20.6237 98.4178 14.8636 97.0955 15.4527Z" fill="#B7262D"/>
<path fill-rule="evenodd" clip-rule="evenodd" d="M0.160356 144.167C0.252087 145.354 1.2002 146.542 1.9212 146.985C3.53298 147.975 29.9661 147.415 33.996 147.429C36.2394 147.436 38.401 147.042 38.7212 144.129C38.9814 141.76 38.9347 126.789 38.7414 124.13C38.3371 118.567 30.5662 121.202 27.1214 121.602C22.7674 122.109 18.3353 122.619 13.9372 123.164C-0.702202 124.977 0.145582 122.869 0.145485 134.143C0.145485 137.022 -0.0473425 141.479 0.160356 144.167Z" fill="#B7262D"/>
<path fill-rule="evenodd" clip-rule="evenodd" d="M33.8367 52.2202C23.8619 56.1765 13.8187 60.723 3.82016 64.8562C0.9819 66.0293 0.118279 65.9709 0.139715 70.6503C0.179787 79.3954 -1.42077 87.1289 5.28226 85.2809C13.9704 82.8856 22.703 80.5137 31.3969 78.0654C38.8692 75.9614 38.7529 77.6415 38.7529 66.6508C38.7529 63.196 38.9101 58.9765 38.7515 55.617C38.6 52.4025 36.223 51.274 33.8367 52.2202Z" fill="#B7262D"/>
<path fill-rule="evenodd" clip-rule="evenodd" d="M118.781 144.501C119.209 148.727 124.183 147.42 127.091 147.42C142.15 147.42 142.784 149.331 142.781 140.158C142.775 122.79 144.297 124.857 133.77 123.891C119.155 122.551 118.728 120.46 118.732 130.134C118.734 133.95 118.434 141.074 118.781 144.501Z" fill="#B7262D"/>
<path fill-rule="evenodd" clip-rule="evenodd" d="M118.732 62.6416C118.732 83.4121 117.657 80.9282 124.502 82.6373C127.306 83.3376 130.023 84.0211 132.827 84.7037C143.548 87.3144 142.781 88.5726 142.781 75.0038C142.781 72.9959 142.892 70.2676 142.763 68.3463C142.617 66.1772 142.014 65.3906 140.538 64.8503C137.949 63.9026 135.265 63.1505 132.629 62.2271C130.086 61.3366 127.477 60.4689 124.923 59.6561C122.968 59.0346 118.732 56.5031 118.732 62.6416Z" fill="#B7262D"/>
<path fill-rule="evenodd" clip-rule="evenodd" d="M13.5568 28.4977C11.3082 29.4898 1.24068 34.5285 0.39801 36.6767C-0.182697 38.1574 0.152751 46.9315 0.144254 49.2794C0.135081 51.8202 -0.0545607 53.3134 1.18468 54.4356C3.777 56.7835 8.55996 53.6627 12.344 52.072C14.7057 51.0788 18.1523 50.5196 18.4396 47.2452C18.7325 43.9072 18.4532 37.8814 18.467 34.2389C18.4768 31.6503 18.6542 30.1961 17.3732 29.0899C16.1936 28.0714 14.9024 27.904 13.5568 28.4977Z" fill="#B7262D"/>
<path fill-rule="evenodd" clip-rule="evenodd" d="M13.2098 91.884C10.66 92.5831 8.28603 93.2128 5.72584 93.9429C-1.11718 95.894 0.163382 94.5793 0.138277 110.771C0.130842 115.567 2.20261 116.027 5.53322 115.62C8.24238 115.29 10.9712 114.96 13.6935 114.65C19.6211 113.975 18.4492 112.811 18.4709 96.7088C18.4771 92.0663 16.4601 90.9927 13.2098 91.884Z" fill="#B7262D"/>
</g>
<defs>
<filter id="filter0_d_0_1" x="164.251" y="40.8138" width="611.894" height="83.474" filterUnits="userSpaceOnUse" color-interpolation-filters="sRGB">
<feFlood flood-opacity="0" result="BackgroundImageFix"/>
<feColorMatrix in="SourceAlpha" type="matrix" values="0 0 0 0 0 0 0 0 0 0 0 0 0 0 0 0 0 0 127 0" result="hardAlpha"/>
<feOffset dy="4"/>
<feGaussianBlur stdDeviation="2"/>
<feComposite in2="hardAlpha" operator="out"/>
<feColorMatrix type="matrix" values="0 0 0 0 0 0 0 0 0 0 0 0 0 0 0 0 0 0 0.25 0"/>
<feBlend mode="normal" in2="BackgroundImageFix" result="effect1_dropShadow_0_1"/>
<feBlend mode="normal" in="SourceGraphic" in2="effect1_dropShadow_0_1" result="shape"/>
</filter>
<clipPath id="clip0_0_1">
<rect width="776" height="149" fill="white"/>
</clipPath>
</defs>
</svg>
