<svg width="277" height="38" viewBox="0 0 277 38" fill="none" xmlns="http://www.w3.org/2000/svg">
<path d="M64.9329 14.2908H64.226V19.2766H65.1313C66.2145 19.2766 67.0413 19.0575 67.6118 18.6192C68.1823 18.181 68.4676 17.5526 68.4676 16.7341C68.4676 15.8742 68.1906 15.2541 67.6366 14.8737C67.0826 14.4851 66.1814 14.2908 64.9329 14.2908ZM60.0588 29V11.0166H64.6849C66.1649 11.0166 67.31 11.1158 68.1203 11.3143C68.9389 11.5044 69.6623 11.8269 70.2907 12.2816C70.9604 12.7612 71.4772 13.3565 71.841 14.0676C72.2131 14.7704 72.3991 15.5145 72.3991 16.3C72.3991 17.4327 72.1097 18.4249 71.531 19.2766C70.9604 20.1282 70.1336 20.7938 69.0505 21.2733L74.5323 29H69.6334L64.8337 21.9431H64.226V29H60.0588ZM76.2562 29V11.0166H87.3315V14.7249H80.4234V17.9743H86.3394V21.6578H80.4234V25.2173H87.4308V29H76.2562ZM90.7174 29V11.0166H101.892V14.6753H94.9838V18.2596H101.16V21.8935H94.9838V29H90.7174ZM108.006 20.0083C108.006 21.571 108.461 22.8815 109.371 23.9398C110.288 24.9899 111.417 25.5149 112.756 25.5149C114.104 25.5149 115.233 24.9899 116.142 23.9398C117.052 22.8898 117.506 21.5793 117.506 20.0083C117.506 18.4291 117.052 17.1144 116.142 16.0644C115.233 15.006 114.104 14.4769 112.756 14.4769C111.417 14.4769 110.288 15.006 109.371 16.0644C108.461 17.1144 108.006 18.4291 108.006 20.0083ZM103.591 20.0083C103.591 18.6771 103.818 17.4327 104.273 16.2752C104.736 15.1094 105.414 14.0676 106.307 13.1498C107.15 12.2734 108.13 11.6036 109.246 11.1406C110.363 10.6693 111.533 10.4337 112.756 10.4337C113.98 10.4337 115.15 10.6693 116.266 11.1406C117.391 11.6119 118.387 12.2899 119.255 13.1746C120.132 14.0593 120.793 15.0846 121.24 16.2504C121.694 17.4079 121.922 18.6606 121.922 20.0083C121.922 21.1328 121.765 22.1911 121.45 23.1833C121.136 24.1755 120.669 25.0809 120.049 25.8994C119.172 27.0652 118.093 27.9706 116.812 28.6155C115.539 29.2604 114.187 29.5829 112.756 29.5829C111.541 29.5829 110.375 29.3473 109.259 28.876C108.151 28.4047 107.167 27.7267 106.307 26.842C105.414 25.9242 104.736 24.8907 104.273 23.7414C103.818 22.5839 103.591 21.3395 103.591 20.0083ZM129.797 14.2908H129.09V19.2766H129.996C131.079 19.2766 131.906 19.0575 132.476 18.6192C133.047 18.181 133.332 17.5526 133.332 16.7341C133.332 15.8742 133.055 15.2541 132.501 14.8737C131.947 14.4851 131.046 14.2908 129.797 14.2908ZM124.923 29V11.0166H129.549C131.029 11.0166 132.174 11.1158 132.985 11.3143C133.803 11.5044 134.527 11.8269 135.155 12.2816C135.825 12.7612 136.341 13.3565 136.705 14.0676C137.077 14.7704 137.263 15.5145 137.263 16.3C137.263 17.4327 136.974 18.4249 136.395 19.2766C135.825 20.1282 134.998 20.7938 133.915 21.2733L139.397 29H134.498L129.698 21.9431H129.09V29H124.923ZM139.645 29L143.378 10.4337H143.688L150.472 22.1415L156.871 10.4337H157.194L160.952 29H156.871L155.346 20.7896L150.521 29.6573H150.236L145.052 20.6656L143.477 29H139.645ZM167.475 23.2825H172.201L169.869 17.6519L167.475 23.2825ZM160.753 29L169.919 10.4585H170.192L179.158 29H174.669L173.528 26.3831H166.235L165.069 29H160.753ZM191.759 23.2825H196.485L194.153 17.6519L191.759 23.2825ZM185.037 29L194.203 10.4585H194.475L203.442 29H198.953L197.812 26.3831H190.519L189.353 29H185.037ZM220.061 19.0161V27.7598C218.854 28.3633 217.676 28.8181 216.527 29.124C215.386 29.4299 214.278 29.5829 213.203 29.5829C210.466 29.5829 208.192 28.6817 206.382 26.8792C204.579 25.0685 203.678 22.7864 203.678 20.0331C203.678 17.255 204.592 14.9564 206.419 13.1374C208.254 11.3184 210.574 10.4089 213.377 10.4089C214.435 10.4089 215.444 10.5536 216.403 10.843C217.362 11.1324 218.284 11.5706 219.168 12.1576L218.71 16.6597C217.874 15.8163 217.044 15.2003 216.217 14.8117C215.39 14.4148 214.522 14.2164 213.612 14.2164C212 14.2164 210.665 14.758 209.606 15.8411C208.548 16.916 208.019 18.2637 208.019 19.8843C208.019 21.5875 208.527 22.9807 209.544 24.0639C210.569 25.1387 211.888 25.6762 213.501 25.6762C213.873 25.6762 214.249 25.6431 214.629 25.577C215.01 25.5108 215.406 25.4157 215.82 25.2917V22.6748H212.409V19.0161H220.061ZM226.92 20.0083C226.92 21.571 227.375 22.8815 228.284 23.9398C229.202 24.9899 230.331 25.5149 231.67 25.5149C233.018 25.5149 234.146 24.9899 235.056 23.9398C235.965 22.8898 236.42 21.5793 236.42 20.0083C236.42 18.4291 235.965 17.1144 235.056 16.0644C234.146 15.006 233.018 14.4769 231.67 14.4769C230.331 14.4769 229.202 15.006 228.284 16.0644C227.375 17.1144 226.92 18.4291 226.92 20.0083ZM222.505 20.0083C222.505 18.6771 222.732 17.4327 223.187 16.2752C223.65 15.1094 224.328 14.0676 225.221 13.1498C226.064 12.2734 227.044 11.6036 228.16 11.1406C229.276 10.6693 230.446 10.4337 231.67 10.4337C232.894 10.4337 234.064 10.6693 235.18 11.1406C236.304 11.6119 237.301 12.2899 238.169 13.1746C239.045 14.0593 239.707 15.0846 240.153 16.2504C240.608 17.4079 240.835 18.6606 240.835 20.0083C240.835 21.1328 240.678 22.1911 240.364 23.1833C240.05 24.1755 239.583 25.0809 238.963 25.8994C238.086 27.0652 237.007 27.9706 235.726 28.6155C234.452 29.2604 233.1 29.5829 231.67 29.5829C230.455 29.5829 229.289 29.3473 228.173 28.876C227.065 28.4047 226.081 27.7267 225.221 26.842C224.328 25.9242 223.65 24.8907 223.187 23.7414C222.732 22.5839 222.505 21.3395 222.505 20.0083ZM248.711 14.2908H248.004V19.2766H248.909C249.992 19.2766 250.819 19.0575 251.39 18.6192C251.96 18.181 252.246 17.5526 252.246 16.7341C252.246 15.8742 251.969 15.2541 251.415 14.8737C250.861 14.4851 249.959 14.2908 248.711 14.2908ZM243.837 29V11.0166H248.463C249.943 11.0166 251.088 11.1158 251.898 11.3143C252.717 11.5044 253.44 11.8269 254.069 12.2816C254.738 12.7612 255.255 13.3565 255.619 14.0676C255.991 14.7704 256.177 15.5145 256.177 16.3C256.177 17.4327 255.888 18.4249 255.309 19.2766C254.738 20.1282 253.912 20.7938 252.828 21.2733L258.31 29H253.411L248.612 21.9431H248.004V29H243.837ZM263.941 23.2825H268.666L266.335 17.6519L263.941 23.2825ZM257.219 29L266.384 10.4585H266.657L275.624 29H271.134L269.993 26.3831H262.701L261.535 29H257.219Z" fill="#373435"/>
<path fill-rule="evenodd" clip-rule="evenodd" d="M16.8534 36.8526C17.0841 37.8465 18.9415 37.5983 19.973 37.5983L35.652 37.597C40.8351 37.597 40.3342 38.2396 40.3342 34.4667C40.3342 33.4744 40.6536 31.5349 39.853 31.1145C39.4416 30.8986 26.9063 30.124 25.2727 30.0098C23.8448 29.9099 23.0329 29.8969 21.6598 30.0091C16.3449 30.4434 16.8316 29.9913 16.8316 33.018C16.8316 33.7409 16.7343 36.3391 16.8534 36.8526V36.8526Z" fill="#B7262D"/>
<path fill-rule="evenodd" clip-rule="evenodd" d="M23.166 9.94683C22.1303 10.1796 20.8626 10.6466 19.8195 10.9591C18.9599 11.2167 17.0081 11.5624 16.8488 12.3364C16.7109 13.0061 16.8326 15.772 16.8316 16.6574C16.8306 17.4388 16.7359 17.9611 17.2987 18.3116C17.8523 18.6564 18.4874 18.4806 19.1161 18.3596C23.5088 17.5143 22.503 17.4414 26.5282 18.108L37.7284 19.9554C39.3379 20.2187 40.3464 20.7523 40.3352 18.7885C40.3084 14.1165 40.7978 14.2822 38.8575 13.797C36.5762 13.2265 23.6332 9.84185 23.166 9.94683V9.94683Z" fill="#B7262D"/>
<path fill-rule="evenodd" clip-rule="evenodd" d="M22.9518 19.8516C20.7209 20.2844 18.5184 20.7254 16.2777 21.1426C15.134 21.3556 10.3405 22.0957 9.81685 22.6057C9.33837 23.0717 9.56113 25.4467 9.56113 26.2863C9.56117 27.8092 9.34912 28.829 11.2004 28.6894L22.2339 27.7981C24.0428 27.6656 27.7041 28.0068 29.6847 28.1501C32.3921 28.3461 31.9422 28.6487 31.9579 22.707C31.9629 20.8481 31.572 21.1281 29.8395 20.8432C28.6205 20.6427 23.7922 19.6886 22.9518 19.8516V19.8516Z" fill="#B7262D"/>
<path fill-rule="evenodd" clip-rule="evenodd" d="M31.9575 8.47699L31.9577 3.70513C31.9577 2.60172 31.0011 2.54557 29.5491 2.04917L23.3736 0C23.2083 0.000620417 10.3039 5.02917 10.007 5.2389C9.45607 5.62821 9.58829 6.14092 9.58867 6.94315C9.58902 7.72743 9.43522 10.4427 9.76194 10.8484C10.4258 11.6727 12.2004 10.928 13.0542 10.6811C15.2232 10.0538 17.331 9.44802 19.4527 8.8166C20.5196 8.49916 21.5651 8.20491 22.6222 7.89528C23.5488 7.62392 23.351 7.68358 24.285 7.91548C24.8717 8.06121 25.4135 8.19612 25.9911 8.34429C27.0936 8.6271 28.215 8.90384 29.3286 9.17817C30.4589 9.4566 31.9575 10.1416 31.9575 8.47699Z" fill="#B7262D"/>
<path fill-rule="evenodd" clip-rule="evenodd" d="M34.6209 21.7324C33.7671 22.0471 34.0011 23.2942 34.0011 24.2412C34.0011 25.2847 33.9754 26.3591 33.9976 27.3984C34.024 28.6362 34.8736 28.5221 35.9674 28.6215C38.3662 28.8396 49.8722 30.0549 50.4641 29.8623C51.1926 29.6252 50.967 28.1794 50.967 27.3088C50.967 23.6923 51.2991 24.2133 48.2634 23.7291C46.1426 23.3908 34.9729 21.6027 34.6209 21.7324V21.7324Z" fill="#B7262D"/>
<path fill-rule="evenodd" clip-rule="evenodd" d="M34.6591 3.94096C33.7437 4.23242 34.0011 5.19686 34.0011 6.77275C34.0011 10.8806 33.5831 10.2398 36.6091 11.0197L44.8834 13.1335C51.4448 14.8155 50.967 15.2895 50.967 11.5446C50.967 11.0611 51.0115 10.3091 50.9541 9.85774C50.8777 9.25642 50.6471 9.187 50.1214 9.00487L39.8026 5.51786C39.04 5.25973 35.1311 3.79072 34.6591 3.94096V3.94096Z" fill="#B7262D"/>
<path fill-rule="evenodd" clip-rule="evenodd" d="M0.0570737 36.7674C0.089818 37.0702 0.428255 37.3732 0.685624 37.4861C1.26096 37.7387 10.6965 37.5958 12.135 37.5993C12.9358 37.6012 13.7074 37.5006 13.8217 36.7577C13.9146 36.1535 13.8979 32.3354 13.8289 31.6574C13.6846 30.2386 10.9107 30.9105 9.68104 31.0127C8.12687 31.1419 6.54477 31.272 4.97484 31.4109C-0.250824 31.8733 0.0518001 31.3356 0.0517656 34.211C0.0517656 34.9453 -0.017066 36.0818 0.0570737 36.7674V36.7674Z" fill="#B7262D"/>
<path fill-rule="evenodd" clip-rule="evenodd" d="M12.0783 13.3179C8.5177 14.3269 4.93272 15.4864 1.36364 16.5405C0.350498 16.8397 0.0422208 16.8248 0.0498726 18.0182C0.0641767 20.2485 -0.507158 22.2208 1.88555 21.7495C4.98684 21.1386 8.10402 20.5337 11.2074 19.9093C13.8747 19.3727 13.8332 19.8012 13.8332 16.9982C13.8332 16.1171 13.8893 15.041 13.8327 14.1842C13.7786 13.3644 12.9301 13.0766 12.0783 13.3179V13.3179Z" fill="#B7262D"/>
<path fill-rule="evenodd" clip-rule="evenodd" d="M42.3999 36.8526C42.5527 37.9304 44.3283 37.597 45.3662 37.597C50.7418 37.597 50.9681 38.0844 50.967 35.7449C50.9649 31.3156 51.5082 31.8426 47.7505 31.5964C42.5335 31.2546 42.3811 30.7214 42.3826 33.1885C42.3831 34.1617 42.2761 35.9787 42.3999 36.8526V36.8526Z" fill="#B7262D"/>
<path fill-rule="evenodd" clip-rule="evenodd" d="M42.3826 15.9757C42.3826 21.2729 41.9987 20.6394 44.4421 21.0753C45.443 21.2539 46.4127 21.4282 47.4136 21.6023C51.2406 22.2681 50.967 22.589 50.967 19.1285C50.967 18.6164 51.0067 17.9206 50.9606 17.4306C50.9085 16.8774 50.6931 16.6768 50.1661 16.539C49.2421 16.2973 48.2842 16.1055 47.3432 15.87C46.4355 15.6429 45.5042 15.4216 44.5923 15.2143C43.8944 15.0558 42.3826 14.4102 42.3826 15.9757V15.9757Z" fill="#B7262D"/>
<path fill-rule="evenodd" clip-rule="evenodd" d="M4.83897 7.26788C4.03633 7.5209 0.442629 8.80592 0.141831 9.35378C-0.0654573 9.73141 0.0542839 11.9691 0.0512507 12.5679C0.0479763 13.2159 -0.019718 13.5967 0.422639 13.8829C1.34799 14.4817 3.05531 13.6858 4.40606 13.2801C5.2491 13.0268 6.47939 12.8842 6.58193 12.0491C6.68647 11.1978 6.58679 9.66103 6.59172 8.73206C6.59523 8.0719 6.65855 7.70103 6.20127 7.41891C5.78021 7.15916 5.31931 7.11646 4.83897 7.26788V7.26788Z" fill="#B7262D"/>
<path fill-rule="evenodd" clip-rule="evenodd" d="M4.71506 23.4335C3.80491 23.6118 2.95749 23.7724 2.04361 23.9586C-0.399069 24.4562 0.0580403 24.1209 0.0490787 28.2503C0.0464247 29.4735 0.78596 29.5907 1.97485 29.4871C2.94191 29.4028 3.916 29.3186 4.88774 29.2395C7.00364 29.0674 6.58534 28.7705 6.59306 24.664C6.59527 23.48 5.87531 23.2062 4.71506 23.4335Z" fill="#B7262D"/>
</svg>
